<?xml version="1.0" standalone="no"?>
<!DOCTYPE svg PUBLIC "-//W3C//DTD SVG 20010904//EN"
 "http://www.w3.org/TR/2001/REC-SVG-20010904/DTD/svg10.dtd">
<svg version="1.0" xmlns="http://www.w3.org/2000/svg"
 width="883.000000pt" height="703.000000pt" viewBox="0 0 883.000000 703.000000"
 preserveAspectRatio="xMidYMid meet">

<g transform="translate(0.000000,703.000000) scale(0.100000,-0.100000)"
fill="#000000" stroke="none">
<path d="M140 7001 c-30 -10 -56 -23 -57 -28 -2 -6 138 -12 384 -16 1681 -29
3118 -266 3931 -647 100 -48 102 -49 102 -83 0 -192 164 -719 306 -986 25 -46
44 -84 42 -86 -2 -1 -48 -36 -103 -78 -319 -238 -518 -542 -581 -882 -22 -121
-14 -400 14 -525 55 -234 161 -420 334 -585 155 -148 351 -261 592 -340 198
-65 341 -91 736 -130 543 -55 877 -175 1180 -425 105 -87 346 -307 460 -420
391 -389 694 -963 855 -1617 21 -84 41 -153 45 -153 14 0 22 100 15 189 -15
202 -64 429 -140 649 -215 629 -600 1170 -1110 1558 -53 40 -94 74 -90 74 4 0
60 -12 124 -26 338 -75 711 -250 958 -449 85 -69 236 -219 306 -305 135 -168
270 -409 338 -607 17 -51 35 -93 40 -93 13 0 12 12 -22 149 -59 244 -149 435
-309 660 -156 221 -298 369 -475 497 -110 79 -353 201 -495 248 -336 111 -925
240 -1370 301 -549 75 -681 100 -897 170 -418 137 -639 350 -728 699 -67 263
-49 459 60 681 178 361 562 612 905 591 373 -23 841 -162 1392 -414 278 -127
264 -116 260 -183 -8 -131 30 -178 225 -279 76 -39 181 -101 233 -138 94 -67
239 -200 277 -256 l21 -30 17 35 c27 54 64 88 143 131 39 22 72 43 72 47 0 4
-23 13 -52 19 -102 24 -221 98 -323 201 -47 48 -48 51 -30 65 17 12 18 17 6
42 -17 39 -125 202 -195 297 l-57 77 -103 0 -102 0 -51 73 c-64 91 -206 243
-219 234 -7 -4 -7 -30 1 -82 7 -41 9 -75 5 -75 -22 0 -134 86 -176 136 -131
154 -163 180 -143 111 12 -43 11 -87 -1 -87 -29 0 -98 48 -178 125 -49 47 -92
85 -96 85 -3 0 -6 -18 -6 -39 l0 -39 -97 48 c-184 92 -469 170 -673 185 -547
41 -835 226 -929 597 -27 104 -45 312 -37 425 l6 93 -80 40 c-442 222 -1129
393 -1950 484 -587 66 -1113 93 -1940 101 -481 4 -519 3 -570 -14z m1255 -21
c684 -26 1291 -81 1764 -160 96 -17 183 -32 193 -36 14 -4 18 -16 18 -55 0
-58 4 -57 -118 -30 -687 153 -1735 260 -2715 278 -226 4 -363 10 -355 15 15
11 806 3 1213 -12z m6159 -2680 c29 -44 27 -48 -9 -24 -15 10 -25 26 -25 40 0
13 2 24 4 24 2 0 15 -18 30 -40z"/>
<path d="M3375 6230 c-698 -22 -1427 -91 -2215 -211 -363 -55 -984 -160 -1022
-174 -41 -14 -127 -74 -128 -89 0 -10 15 -9 365 43 993 147 1613 211 2355 241
447 18 1148 10 1633 -18 65 -4 123 -5 128 -1 6 3 6 16 -1 33 -5 15 -10 56 -10
90 0 39 -5 68 -12 74 -18 14 -765 22 -1093 12z m-5 -90 c0 -59 -1 -60 -27 -60
-134 -1 -777 -22 -923 -30 -581 -34 -1192 -102 -2024 -226 -164 -24 -306 -44
-315 -44 -23 0 37 38 79 50 49 14 765 132 1060 175 756 110 1575 188 2023 194
l127 1 0 -60z"/>
<path d="M4285 5874 c-834 -88 -1615 -323 -2575 -774 -233 -109 -716 -359
-736 -380 -44 -48 -76 -91 -71 -97 4 -3 125 53 269 125 1134 562 2173 861
3213 923 105 6 191 12 192 13 3 3 -46 186 -53 197 -7 12 -81 10 -239 -7z
m-915 -251 l0 -58 -217 -53 c-656 -162 -1270 -390 -1937 -720 -137 -67 -250
-121 -251 -120 -18 18 199 139 600 333 641 311 1144 504 1735 664 68 18 70 17
70 -46z"/>
<path d="M5702 5719 c2 -5 61 -34 130 -64 187 -79 454 -210 618 -304 321 -183
558 -359 763 -564 l138 -138 45 17 c24 9 44 19 44 23 -1 10 -71 83 -150 156
-366 335 -917 654 -1447 839 -144 50 -146 51 -141 35z"/>
</g>
</svg>
